# xmcd
#
# Track frame offsets: 
#        150
#        3640
#        44327
#        70842
#        117630
#        142780
#
# Disc length: 2193 seconds
#
# Revision: 2
# Processed by: cddbd v1.5.2PL0 Copyright (c) Steve Scherf et al.
# Submitted via: ExactAudioCopy v0.99pb5
#
DISCID=4f088f06
DTITLE=String Cheese Incident - OTR 04-19-2002 Birmingham, AL [CD2]
DYEAR=2002
DGENRE=Lam Band
TTITLE0=Intro
TTITLE1=Close Your Eyes
TTITLE2=County Road Blues
TTITLE3=Under African Skies
TTITLE4=Dust Cloud Jam
TTITLE5=Long Gone
EXTD=
EXTT0=
EXTT1=
EXTT2=
EXTT3=
EXTT4=
EXTT5=
PLAYORDER=
